<svg xmlns="http://www.w3.org/2000/svg" xmlns:xlink="http://www.w3.org/1999/xlink" viewBox="0 0 338 334"><defs><style>.cls-1{fill:none;}.cls-2{fill:#7404e4;stroke:#7404e4;stroke-width:30px;}.cls-2,.cls-5{stroke-miterlimit:10;}.cls-3{clip-path:url(#clip-path);}.cls-4{fill:#fff;}.cls-5{stroke:#000;}.cls-6{fill-opacity:0.2;}</style><clipPath id="clip-path"><rect class="cls-1" x="54" y="35" width="235.1" height="263"/></clipPath></defs><g id="Layer_2" data-name="Layer 2"><g id="Layer_1-2" data-name="Layer 1"><path class="cls-2" d="M169,319c85.05,0,154-68.05,154-152S254.05,15,169,15,15,83.05,15,167,84,319,169,319Z"/><g class="cls-3"><path class="cls-4" d="M287.9,214.9c-11,6.7-43.7,4.8-39.9,11.3,5.9,10,38.2-4.5,38.9.7,1.9,14.5-37.2,18.9-49.5,22a10,10,0,0,0,.2,3.8c1.9,7.8,14.7,11.1,15.9,11.3,11.2,2,12.7-2.4,20.9.9,6.5,2.7,13.8,8.2,12.9,9.7s-6.2-2.1-14.5-2.7c-20.2-2.7-12.5,11.6-16.2,11.6-2.1.7-10.2-7.1-11.8-9.9a11.73,11.73,0,0,0-.5-1.1c-3.4-3.4-26.8-7-26.9-11.6-.1-1.6,2.5-2.8,4-6.5.3-.8.5-1.4.7-2-13,2.5-31.3,6.5-32,13.2a11.52,11.52,0,0,0,4.4,10.7c8.9,6.6,13.6-.2,24.6,5.6,6.1,2.6,13.4,7.6,12.4,9.4-1,1.6-6.9-2.4-14.9-2.8-27.1-1.5-13.7,9.2-20.5,9.6-1.9-.4-7.6-5.8-9.3-9-1.6-3.4-10.1-11-14.8-13.4-6.3-3.4-32.9.5-50.4-7.1-18.1-7.8-19.8-13.3-24.4-11.5-2.8,1-7.1,7.7-6.4,9.8,2,5.9-3.3,14.2-5.7,14.1-4.3-.9-1.6-10.9-20.1-1.6-6.2,3.6-9,9.9-10.4,7.6-2.1-2.6,1.7-10.1,4.9-13.9,5.8-5.4,11.2-5.4,17.1-10.2,6.2-5.1,6.8-10.9,7.1-16.6a83.53,83.53,0,0,0-2.6-20.9h.1c-19.7-28.5-17.6-60.5-17-68.6C69.1,97.1,122.3,33.2,179.3,35c27.6.8,66.7,17.5,71,47.8,3.4,24.5-16.1,56.5-43.4,58.3-23,1.4-48.3-18.8-47.5-39.3.5-11.9,9.7-25.2,22.5-28,10.1-2.2,23.9,1.9,26.2,10.3,1.6,5.9-2.4,13.9-6.5,14.3-4.8.6-7-8.8-12.8-8.8-4.6.1-9.3,6.4-9.2,11.9.1,9.3,14,18.9,26.2,17s20.3-14.8,20.5-25.3c.5-18-21.7-34.2-40.6-35.5-29.4-2-63.2,31.5-59.7,67.3,2.5,25.4,23.3,47.8,51.9,54.9-1.4-4.1-2.3-9.1,0-13.3,7.3-13.2,40.2-6,44.1-5.5C264.5,166.7,295.6,210.3,287.9,214.9Z"/><path class="cls-5" d="M254.7,172.7c1.3-.2,13.6-3,21.1,3.1,8.4,7,7.9,22.5,7.9,23.7C277.1,190.6,265.7,179.5,254.7,172.7Z"/><path d="M274.2,201.2c-2.1.6-3,3.6-2.6,5.8.7,2.9,4,5.2,6.2,4.3,1.9-.8,2.6-3.8,1.9-5.9C278.8,202.9,276.4,200.5,274.2,201.2Z"/><path class="cls-6" d="M274.2,201.2c-2.1.6-3,3.6-2.6,5.8.7,2.9,4,5.2,6.2,4.3,1.9-.8,2.6-3.8,1.9-5.9C278.8,202.9,276.4,200.5,274.2,201.2Z"/><path class="cls-6" d="M274.2,201.2c-2.1.6-3,3.6-2.6,5.8.7,2.9,4,5.2,6.2,4.3,1.9-.8,2.6-3.8,1.9-5.9C278.8,202.9,276.4,200.5,274.2,201.2Z"/><path class="cls-5" d="M223.4,172c-16.8-.9-32.5,13.6-31.7,29.5.9,17.4,21.5,30.2,38.4,25.4,11.4-3.3,21.8-14.6,21.1-28.3C250.5,183.7,237,172.8,223.4,172Z"/><path class="cls-5" d="M225.5,173.7c-12,.3-24.6,10.5-25.3,21.6-.9,14.5,15.3,28,29.8,24.3,11.9-3,22.9-16.6,18-29.8C244.5,179.8,235.4,173.4,225.5,173.7Z"/><path class="cls-5" d="M234.2,176.5c-11.9-1.6-21.2,7.2-23.4,15.5-2.9,11,3.8,24.7,14.3,26.1,9.8,1.3,22.9-8.6,23.9-19C250,189.7,244.2,177.8,234.2,176.5Z"/><path class="cls-4" d="M223.1,177.8c-9.6-.8-19.4,6.9-21.9,15.6a21.3,21.3,0,0,0,14.3,26.1c4.9,1.4,1.9-3.8,1.7-4.1-.9-.9-11.1-4.7-10-15.5.3-3.4,10.5,1.5,12.8-5.8,1.2-3.8-.6-7.6,1.7-9.3s11.7-.2,12-1S228.2,178.3,223.1,177.8Z"/></g></g></g></svg>