<svg id="Layer_1" data-name="Layer 1" xmlns="http://www.w3.org/2000/svg" viewBox="0 0 1908.19 339.23"><defs><style>.cls-1{fill:#7404e4;}</style></defs><rect class="cls-1" x="217.78" y="205.45" width="33.68" height="33.68"/><rect class="cls-1" x="236.87" y="156.05" width="35.92" height="35.92"/><rect class="cls-1" x="195.33" y="253.72" width="29.19" height="29.19"/><rect class="cls-1" x="151.55" y="278.42" width="26.94" height="26.94"/><rect class="cls-1" x="104.4" y="285.15" width="24.7" height="24.7"/><rect class="cls-1" x="57.25" y="268.31" width="23.57" height="23.57"/><rect class="cls-1" x="19.08" y="234.63" width="22.45" height="22.45"/><rect class="cls-1" y="190.85" width="19.08" height="19.08"/><rect class="cls-1" y="142.58" width="17.96" height="17.96"/><rect class="cls-1" x="15.72" y="104.41" width="16.84" height="16.84"/><rect class="cls-1" x="46.03" y="69.61" width="15.72" height="15.72"/><rect class="cls-1" x="90.93" y="48.29" width="13.47" height="13.47"/><rect class="cls-1" x="134.71" y="43.8" width="12.35" height="12.35"/><rect class="cls-1" x="180.74" y="57.27" width="11.23" height="11.23"/><rect class="cls-1" x="215.54" y="84.21" width="10.1" height="10.1"/><rect class="cls-1" x="265.01" y="164.37" width="33.68" height="33.68" transform="translate(556.88 306.95) rotate(180)"/><rect class="cls-1" x="291.95" y="120.59" width="29.19" height="29.19" transform="translate(606.27 214.9) rotate(180)"/><rect class="cls-1" x="337.98" y="98.14" width="26.94" height="26.94" transform="translate(696.08 167.75) rotate(180)"/><rect class="cls-1" x="387.37" y="93.65" width="24.7" height="24.7" transform="translate(792.62 156.53) rotate(180)"/><rect class="cls-1" x="435.64" y="111.61" width="23.57" height="23.57" transform="translate(888.04 191.33) rotate(180)"/><rect class="cls-1" x="474.93" y="146.41" width="22.45" height="22.45" transform="translate(965.5 259.8) rotate(180)"/><rect class="cls-1" x="497.38" y="193.56" width="19.08" height="19.08" transform="translate(1007.04 350.73) rotate(180)"/><rect class="cls-1" x="498.51" y="242.95" width="17.96" height="17.96" transform="translate(1008.16 448.4) rotate(180)"/><rect class="cls-1" x="483.91" y="282.24" width="16.84" height="16.84" transform="translate(977.85 525.86) rotate(180)"/><rect class="cls-1" x="454.72" y="318.16" width="15.72" height="15.72" transform="translate(918.35 596.58) rotate(180)"/><rect class="cls-1" x="412.07" y="341.74" width="13.47" height="13.47" transform="translate(830.79 641.48) rotate(180)"/><rect class="cls-1" x="369.41" y="347.35" width="12.35" height="12.35" transform="translate(744.35 651.59) rotate(180)"/><rect class="cls-1" x="324.5" y="335" width="11.23" height="11.23" transform="translate(653.42 625.77) rotate(180)"/><rect class="cls-1" x="290.83" y="309.18" width="10.1" height="10.1" transform="translate(584.94 573.01) rotate(180)"/><rect class="cls-1" x="236.87" y="116.76" width="6.74" height="6.74"/><rect class="cls-1" x="266.05" y="224.53" width="6.74" height="6.74"/><path class="cls-1" d="M661.74,60.38v94.71a90.06,90.06,0,0,1,28.06-19.47,80.91,80.91,0,0,1,32.28-6.49q37.35,0,63.49,28.25t26.14,72.44q0,42.62-27,71.3t-64,28.68A79.45,79.45,0,0,1,690,323.92q-14.21-5.88-28.24-19.21v20.18H614.2V60.38Zm50.34,113q-22.64,0-37.54,15.43t-14.91,40.35q0,25.42,14.91,41.13T712.08,286A48.65,48.65,0,0,0,749,270q15-15.94,15-40.69,0-24.56-14.74-40.25T712.08,173.34Z" transform="translate(-6.81 -55.47)"/><path class="cls-1" d="M870,55.47a29.3,29.3,0,0,1,21.6,9.12,30.3,30.3,0,0,1,9,22.1,30,30,0,0,1-8.92,21.83,28.92,28.92,0,0,1-21.34,9,29.36,29.36,0,0,1-21.78-9.21,30.8,30.8,0,0,1-9-22.36A30.47,30.47,0,0,1,870,55.47Zm-23.94,78.58H894V324.89H846.09Z" transform="translate(-6.81 -55.47)"/><path class="cls-1" d="M943.26,63.71h47.89v70.34h28.41v41.22H991.15V324.89H943.26V175.27H918.7V134.05h24.56Z" transform="translate(-6.81 -55.47)"/><path class="cls-1" d="M1039.91,60.38h47.88V324.89h-47.88Z" transform="translate(-6.81 -55.47)"/><path class="cls-1" d="M1220.93,129.13a101.17,101.17,0,0,1,50.77,13.51,99,99,0,0,1,50.43,86.65,100.28,100.28,0,0,1-13.41,50.52,96.76,96.76,0,0,1-36.58,36.74,101,101,0,0,1-51,13.25q-41,0-70.07-29.21t-29-70.95q0-44.73,32.8-74.55Q1183.56,129.14,1220.93,129.13Zm.78,45.08q-22.31,0-37.16,15.53t-14.84,39.73q0,24.9,14.67,40.34t37.16,15.43q22.49,0,37.42-15.61t14.94-40.16q0-24.56-14.67-39.91T1221.71,174.21Z" transform="translate(-6.81 -55.47)"/><path class="cls-1" d="M1417.2,129.13A101.18,101.18,0,0,1,1468,142.64a99,99,0,0,1,50.43,86.65A100.19,100.19,0,0,1,1505,279.81a96.66,96.66,0,0,1-36.57,36.74,101,101,0,0,1-51,13.25q-41,0-70.08-29.21t-29-70.95q0-44.73,32.81-74.55Q1379.84,129.14,1417.2,129.13Zm.79,45.08q-22.31,0-37.16,15.53T1366,229.47q0,24.9,14.68,40.34t37.16,15.43q22.48,0,37.42-15.61t14.93-40.16q0-24.56-14.67-39.91T1418,174.21Z" transform="translate(-6.81 -55.47)"/><path class="cls-1" d="M1605.06,134.05v21a90.1,90.1,0,0,1,28.07-19.47,80.86,80.86,0,0,1,32.27-6.49q37.36,0,63.5,28.25T1755,229.82q0,42.62-27,71.3t-64,28.68a79.46,79.46,0,0,1-30.7-5.88q-14.21-5.88-28.24-19.21v90h-47.53V134.05Zm50.34,39.29q-22.62,0-37.53,15.43T1603,229.12q0,25.42,14.91,41.13T1655.4,286a48.62,48.62,0,0,0,36.92-16q15-15.94,15-40.69,0-24.56-14.73-40.25T1655.4,173.34Z" transform="translate(-6.81 -55.47)"/><path class="cls-1" d="M1911.49,160.71l-29.64,29.64q-18.07-17.9-32.8-17.89-8.07,0-12.63,3.42a10.29,10.29,0,0,0-4.56,8.51,10.44,10.44,0,0,0,2.89,7.1q2.89,3.25,14.3,8.86l17.54,8.77q27.71,13.68,38.06,27.89T1915,270.34q0,25.43-18.68,42.44t-50.08,17q-41.74,0-66.65-32.63l29.47-32.1A68.14,68.14,0,0,0,1828.79,281q11.31,6,20.08,6.05,9.48,0,15.26-4.56t5.79-10.53q0-11-20.87-21.57l-16.14-8.07q-46.31-23.33-46.31-58.41,0-22.62,17.46-38.68t44.64-16.05a77.45,77.45,0,0,1,62.79,31.58Z" transform="translate(-6.81 -55.47)"/></svg>